PathFileType  4	(X/Y/Z) C:\Users\antoi\Documents\MyRepositories\mobilecap\ResultsAnalysis
DataRate	CameraRate	NumFrames	NumMarkers	Units	OrigDataRate	OrigDataStartFrame	OrigNumFrames
100.0	100.0	4	51	mm	100.0	132	150
Frame#	Time	r_knee			r_shank_antsup			r_ankle			r_calc			r_5meta			r_toe			L_knee			L_shank_antsup			L_ankle			L_calc			L_5meta			L_toe			r_sh2			r_sh3			r_sh4			L_sh2			L_sh3			r_thigh1			r_thigh2			r_thigh3			r_thigh4			r_thigh5			L_thigh1			L_thigh2			L_thigh3			L_thigh4			r.ASIS			r.PSIS			L.ASIS			L.PSIS			C7			R_Shoulder			L_Shoulder			R_Sternum			L_Sternum			R_humerus			R_elbow_med			R_elbow_lat			R_forearm			R_wrist_radius			R_wrist_ulna			L_humerus			L_elbow_med			L_elbow_lat			L_forearm			L_wrist_radius			L_wrist_ulna			R_HJC			L_HJC			R_HJC_reg			L_HJC_reg			
		X1	Y1	Z1	X2	Y2	Z2	X3	Y3	Z3	X4	Y4	Z4	X5	Y5	Z5	X6	Y6	Z6	X7	Y7	Z7	X8	Y8	Z8	X9	Y9	Z9	X10	Y10	Z10	X11	Y11	Z11	X12	Y12	Z12	X13	Y13	Z13	X14	Y14	Z14	X15	Y15	Z15	X16	Y16	Z16	X17	Y17	Z17	X18	Y18	Z18	X19	Y19	Z19	X20	Y20	Z20	X21	Y21	Z21	X22	Y22	Z22	X23	Y23	Z23	X24	Y24	Z24	X25	Y25	Z25	X26	Y26	Z26	X27	Y27	Z27	X28	Y28	Z28	X29	Y29	Z29	X30	Y30	Z30	X31	Y31	Z31	X32	Y32	Z32	X33	Y33	Z33	X34	Y34	Z34	X35	Y35	Z35	X36	Y36	Z36	X37	Y37	Z37	X38	Y38	Z38	X39	Y39	Z39	X40	Y40	Z40	X41	Y41	Z41	X42	Y42	Z42	X43	Y43	Z43	X44	Y44	Z44	X45	Y45	Z45	X46	Y46	Z46	X47	Y47	Z47	X48	Y48	Z48	X49	Y49	Z49	X50	Y50	Z50	X51	Y51	Z51	

132	1.31000000	1421.27334	533.09335	-35.76610	1458.32915	458.62067	-31.14507	1457.30384	96.11063	-58.53254	1393.95687	51.21785	-98.19539	1607.07552	34.79927	-42.93909	1635.13126	67.41678	-102.69176	1250.67048	522.47373	-321.75711	1204.81450	403.79471	-331.90616	966.15016	173.95618	-295.43449	882.15318	175.44138	-257.91969	1052.36443	32.63187	-317.63984	1076.37280	51.48061	-251.85999	1473.92412	346.53108	-26.97668	1387.68651	448.13260	-2.32485	1393.11888	333.03870	-7.61122	1140.22650	466.02609	-342.65056	1066.81661	369.60851	-338.40784	1423.81863	854.94366	4.49211	1455.83167	750.40413	-14.90801	1410.77353	707.03366	12.75856	1315.61678	817.88285	11.55736	1354.55421	707.67696	2.48935	1369.41478	834.79087	-337.87944	1365.84319	698.27113	-333.70766	1251.55683	837.36526	-342.57310	1254.87377	696.74221	-340.01490	1410.43970	1041.49757	-42.65185	1217.27409	1085.79343	-115.43590	1408.28133	1020.41223	-300.28337	1215.16150	1082.85249	-218.40046	1247.13130	1588.81745	-226.84662	1288.13102	1562.34533	-46.90849	1319.27038	1560.79497	-366.31676	1395.87469	1519.33127	-173.97040	1402.75367	1514.49736	-230.20761	1218.18317	1308.23602	57.08780	1183.88608	1215.04565	-15.07022	1181.49488	1225.30005	68.58634	1242.65723	1080.25784	110.14620	1286.19886	973.36986	118.59313	1241.22651	972.65056	126.91838	1357.41597	1322.82481	-484.82739	1326.44646	1208.01576	-446.32838	1358.32945	1232.94103	-507.78738	1508.34038	1139.49034	-499.42165	1592.82142	1095.26380	-470.99944	1575.17129	1066.50077	-492.93170	1321.64225	967.25260	-40.18499	1317.93570	951.41884	-269.97490	1334.09971	961.33474	-75.27162	1330.60068	956.46843	-245.77947	
133	1.32000000	1431.18932	533.86954	-35.61376	1467.09584	458.53780	-31.23870	1458.63346	96.04294	-58.67218	1394.47372	51.79431	-98.12968	1607.55663	34.21279	-42.92983	1635.75571	65.59861	-103.34787	1271.85500	521.87476	-323.33167	1223.49781	404.98799	-334.29409	977.39172	183.14066	-296.21069	894.51947	189.86076	-258.28538	1054.24711	35.33466	-317.53264	1079.98788	53.41615	-252.14352	1480.83079	346.24898	-27.19703	1396.77892	449.31348	-1.34276	1400.18032	334.09060	-6.32431	1160.65773	469.28661	-343.61250	1084.21372	375.33269	-338.84458	1436.73132	856.14895	3.97911	1467.63777	751.22085	-15.85235	1423.06842	708.33995	12.48753	1328.40302	819.61039	13.07591	1366.65499	709.22853	3.37379	1384.67011	835.66579	-337.71433	1384.14378	698.99932	-335.16297	1266.84662	835.60852	-341.50879	1273.18146	695.17323	-340.70440	1423.23876	1043.03728	-41.80672	1229.72028	1086.82359	-114.66286	1420.56285	1021.02830	-299.20112	1227.42529	1083.19346	-217.73481	1257.82373	1589.86364	-223.75156	1299.09568	1562.41090	-44.01705	1329.95878	1563.01229	-363.56070	1406.76561	1520.70876	-171.40869	1413.68141	1516.19809	-227.59483	1230.64882	1307.46008	58.90673	1196.64999	1214.48171	-13.56131	1194.51899	1224.25064	70.10012	1256.83090	1079.37927	110.62406	1301.19558	972.76702	118.30411	1256.22986	971.70373	126.82105	1365.40646	1324.58352	-482.62170	1332.59447	1210.26379	-444.35724	1365.07524	1234.81709	-505.68852	1513.89064	1139.38593	-496.47369	1597.57269	1094.01945	-467.17347	1579.70073	1065.54296	-489.46843	1334.41945	968.71078	-38.96620	1330.50431	951.87996	-268.68040	1346.82628	963.07575	-73.76859	1343.03388	957.08001	-244.13162	
134	1.33000000	1440.44606	534.57133	-35.49630	1475.14411	458.43832	-31.26289	1459.52748	96.03113	-58.84530	1394.81544	52.13629	-98.05947	1607.86120	34.05835	-42.93340	1636.06371	64.38897	-103.95058	1294.18924	521.28547	-324.81053	1243.50723	406.39744	-336.33863	990.15238	192.97946	-297.10671	908.72386	205.05620	-258.79923	1056.82001	39.02412	-317.43151	1084.41397	56.17074	-252.46114	1487.05108	345.97657	-27.33233	1405.03984	450.44854	-0.62968	1406.46597	335.12436	-5.34278	1182.53861	472.60025	-344.67783	1103.19323	381.22869	-339.24757	1449.33462	857.25986	3.53879	1479.13239	751.95420	-16.68990	1434.91839	709.56642	12.28891	1340.91500	821.34729	14.53228	1378.33775	710.76903	4.24865	1400.00467	836.70766	-337.77426	1402.84189	699.92637	-336.77876	1282.23007	833.79408	-340.50806	1291.98474	693.54669	-341.53248	1435.87667	1044.65657	-40.97656	1242.00237	1087.87036	-113.93416	1432.53925	1021.75317	-298.14661	1239.40438	1083.51768	-217.08683	1268.52600	1590.98120	-220.88234	1310.11826	1562.58782	-41.25300	1340.74900	1565.22974	-360.92138	1417.68610	1522.09283	-168.92812	1424.61275	1517.89284	-225.07630	1243.20623	1306.87374	60.72445	1209.39565	1214.07752	-12.00246	1207.61237	1223.40737	71.66757	1271.07590	1078.73627	111.16562	1316.22259	972.42105	118.05956	1271.26309	971.01654	126.81618	1373.37244	1326.31413	-480.41826	1338.70721	1212.57658	-442.28222	1371.73354	1236.66771	-503.52847	1519.22218	1139.12882	-493.58279	1602.03986	1092.49286	-463.54985	1583.92648	1064.36240	-486.18836	1347.04721	970.22533	-37.77687	1342.85718	952.38857	-267.41008	1359.44614	964.93613	-72.17874	1355.16135	957.75769	-242.39001	
135	1.34000000	1448.88244	535.13464	-35.38903	1482.37078	458.28747	-31.19677	1460.08289	96.04948	-59.04174	1395.03067	52.31104	-98.00297	1608.03332	34.13592	-42.94589	1636.15973	63.60555	-104.46495	1317.47367	520.79048	-326.08575	1264.63397	408.04167	-337.94386	1004.45925	203.29384	-298.01873	924.77850	220.81314	-259.34698	1060.19236	43.77326	-317.30425	1089.80059	59.72780	-252.80471	1492.50820	345.67113	-27.37743	1412.33048	451.46687	-0.23836	1411.87592	336.07535	-4.75998	1205.63959	475.99703	-345.71593	1123.57681	387.28182	-339.49974	1461.44709	858.13318	3.30335	1490.11417	752.45762	-17.25289	1446.03203	710.58132	12.24613	1352.95550	823.02450	15.76051	1389.32734	712.20158	5.03984	1415.34367	837.91474	-338.04395	1421.79293	701.08417	-338.46754	1297.67394	831.93087	-339.57671	1311.13214	691.94914	-342.38366	1448.38199	1046.23736	-40.26055	1254.14048	1088.90439	-113.22957	1444.19736	1022.60510	-297.23541	1251.10981	1083.80436	-216.42147	1279.23703	1592.13451	-218.23879	1321.18537	1562.85339	-38.63407	1351.61246	1567.41058	-358.41817	1428.63744	1523.44673	-166.54632	1435.54463	1519.54272	-222.67019	1255.83953	1306.45377	62.53412	1222.10200	1213.80033	-10.40931	1220.74716	1222.74558	73.29081	1285.38100	1078.31022	111.77077	1331.26412	972.31420	117.85385	1286.30935	970.58243	126.90463	1381.32649	1327.98584	-478.21979	1344.80068	1214.91061	-440.09912	1378.32434	1238.45396	-501.30564	1524.35363	1138.69506	-490.76569	1606.22635	1090.65370	-460.15855	1587.87108	1062.94233	-483.09419	1359.57069	971.68969	-36.70735	1354.95857	952.95883	-266.26182	1371.94823	966.88841	-70.60747	1366.95616	958.48619	-240.66157	
